<?xml version="1.0" encoding="UTF-8"?>
<svg version="1.1" xmlns="http://www.w3.org/2000/svg" width="500" height="500">
<path d="M0 0 C15 0 15 0 18.75 3.25 C19.83734844 4.83057867 20.9201568 6.41428432 22 8 C23.81129886 10.02822088 25.63636882 12.02183704 27.5 14 C31.10501402 17.9052301 34.6442867 21.85879234 38.125 25.875 C40.54550142 28.61823494 43.02204178 31.30881243 45.5 34 C49.1441694 37.95859723 52.73913779 41.95176832 56.265625 46.015625 C59.79500714 50.05374691 63.40634226 54.01914681 67 58 C69.24673954 60.49551347 71.49262086 62.99179667 73.73828125 65.48828125 C75.27562686 67.19555798 76.81475555 68.90123044 78.35546875 70.60546875 C82.63916046 75.34838369 86.86696092 80.12513339 91 85 C94.10412761 83.64571539 95.91475724 82.22865747 98.0625 79.625 C101.12490654 76.00279871 104.28157918 72.4834801 107.5 69 C110.53948397 65.70028099 113.56157569 62.39048959 116.5 59 C119.9009898 55.07578101 123.41758782 51.2605505 126.93554688 47.44165039 C130.20538078 43.88553595 133.41222043 40.28329375 136.5625 36.62109375 C137.98574982 35.01607017 139.47738456 33.51022574 141 32 C141.35048199 39.95427229 141.61546635 47.90522895 141.77718258 55.8653574 C141.85488295 59.56368113 141.9598279 63.25665939 142.1315918 66.9519043 C143.30177587 92.78872527 143.30177587 92.78872527 137.71948242 100.23168945 C134.68301217 103.52913179 131.36025865 106.24237367 127.679245 108.78816223 C125.58910676 110.2965237 124.02129994 112.03781712 122.4375 114.0625 C118.61703474 118.59744188 114.34388735 122.6806303 110.1328125 126.84765625 C106.39127111 130.56505866 102.80976724 134.3528445 99.3984375 138.37890625 C97.38361626 140.71452305 95.21358941 142.85348906 93 145 C88.66727735 143.33437913 85.86478466 140.12549398 82.6875 136.875 C82.10355469 136.28460938 81.51960938 135.69421875 80.91796875 135.0859375 C77.44784768 131.55384999 74.13894231 127.93395193 70.9375 124.15625 C67.69978749 120.55298931 64.21481371 117.19544275 60.77099609 113.79052734 C57.77912638 110.81946461 54.87615405 107.82430584 52.125 104.625 C48.93066162 100.91956748 45.4593372 97.4593372 42 94 C41.67 129.97 41.34 165.94 41 203 C27.47 203 13.94 203 0 203 C0 136.01 0 69.02 0 0 Z " fill="#CC9933" transform="translate(149,145)"/>
<path d="M0 0 C13.86 0 27.72 0 42 0 C42.06791225 19.54201021 42.12309495 39.08392378 42.15543652 58.62602234 C42.17085728 67.7012456 42.19185435 76.77638993 42.22631836 85.8515625 C42.25636831 93.76823388 42.27560975 101.68484806 42.28226548 109.6015749 C42.28615153 113.78730166 42.29518236 117.97286486 42.31719017 122.15853882 C42.33780279 126.11150501 42.34378474 130.06424285 42.33932304 134.01725769 C42.34013733 135.45540108 42.34595369 136.89355345 42.35761642 138.33164978 C42.49855252 156.63334037 39.86752918 175.0809308 27 189 C14.88295895 201.28189875 -2.17317753 204.03402611 -18.76020813 204.18869019 C-24.27799188 204.20000979 -29.79490261 204.16703733 -35.3125 204.125 C-37.6139284 204.1149508 -39.91536104 204.10582838 -42.21679688 204.09765625 C-47.81129169 204.07579502 -53.40562565 204.042471 -59 204 C-59.70032693 198.43651899 -60.12772525 192.99132358 -60.1328125 187.375 C-60.13376923 186.70202881 -60.13472595 186.02905762 -60.13571167 185.33569336 C-60.13638458 183.93424382 -60.13459329 182.53279099 -60.13037109 181.13134766 C-60.12494158 178.97681874 -60.13038048 176.8224919 -60.13671875 174.66796875 C-60.13605913 173.29947871 -60.13478039 171.93098879 -60.1328125 170.5625 C-60.13168457 169.32628906 -60.13055664 168.09007812 -60.12939453 166.81640625 C-60 164 -60 164 -59 163 C-56.21092634 162.86425961 -53.44322011 162.78931163 -50.65234375 162.75390625 C-48.91470909 162.72093671 -47.17707901 162.68772564 -45.43945312 162.65429688 C-42.69673169 162.60709712 -39.95402446 162.56273824 -37.21118164 162.52319336 C-34.56635883 162.48316024 -31.92193932 162.43165967 -29.27734375 162.37890625 C-28.4686937 162.3704921 -27.66004364 162.36207794 -26.82688904 162.35340881 C-19.09108808 162.18771649 -12.11485084 161.14203366 -6 156 C-2.34906058 150.89101768 -0.87918593 146.32165882 -0.84178162 140.09651184 C-0.8319928 138.86392136 -0.82220398 137.63133087 -0.81211853 136.36138916 C-0.80621437 134.99328652 -0.80040392 133.62518347 -0.79467773 132.25708008 C-0.78509883 130.81822936 -0.77508874 129.37938145 -0.76467896 127.9405365 C-0.73762512 124.03176589 -0.71661815 120.1229832 -0.69667697 116.21417069 C-0.67482038 112.13020004 -0.64743009 108.04626665 -0.62062073 103.96232605 C-0.57068942 96.22759908 -0.52575221 88.49285143 -0.48259836 80.758084 C-0.43322973 71.95283696 -0.37831021 63.1476273 -0.32291877 54.34241641 C-0.209092 36.22831075 -0.10298728 18.11417075 0 0 Z " fill="#CC9933" transform="translate(309,148)"/>
<path d="M0 0 C1.5631897 0.07069702 1.5631897 0.07069702 3.15795898 0.14282227 C4.28266602 0.19116211 5.40737305 0.23950195 6.56616211 0.28930664 C8.34216797 0.37341797 8.34216797 0.37341797 10.15405273 0.45922852 C11.34192383 0.51143555 12.52979492 0.56364258 13.75366211 0.61743164 C16.69986339 0.74758511 19.64576549 0.88256492 22.59155273 1.02172852 C16.78010158 15.10911658 10.86864475 29.13497747 4.59155273 43.02172852 C3.93155273 42.69172852 3.27155273 42.36172852 2.59155273 42.02172852 C1.9834746 39.41153498 1.5005314 36.86722692 1.08374023 34.22485352 C0.88822067 33.04617706 0.88822067 33.04617706 0.68875122 31.84368896 C0.41402836 30.17650939 0.14363523 28.50861155 -0.12280273 26.84008789 C-0.52976674 24.2947482 -0.95032619 21.75195288 -1.37329102 19.20922852 C-1.63842488 17.58956939 -1.90277304 15.96978141 -2.16625977 14.34985352 C-2.29122833 13.59134094 -2.4161969 12.83282837 -2.54495239 12.05133057 C-3.13122574 8.35251555 -3.66565111 4.76955594 -3.40844727 1.02172852 C-2.40844727 0.02172852 -2.40844727 0.02172852 0 0 Z " fill="#CA9834" transform="translate(255.408447265625,75.978271484375)"/>
<path d="M0 0 C8.58 0 17.16 0 26 0 C25.24506099 8.30432916 24.26176247 16.39094981 22.89819336 24.59228516 C22.55751794 26.65516771 22.23082324 28.71999245 21.90429688 30.78515625 C21.68966797 32.08582031 21.47503906 33.38648438 21.25390625 34.7265625 C21.06127197 35.90814941 20.8686377 37.08973633 20.67016602 38.30712891 C20.44901123 39.19577637 20.22785645 40.08442383 20 41 C19.01 41.495 19.01 41.495 18 42 C15.43396293 36.18040624 12.87076261 30.35956934 10.30957031 24.5378418 C9.43718352 22.5557803 8.56413755 20.57400881 7.69042969 18.5925293 C6.43773479 15.75124116 5.18738182 12.90893277 3.9375 10.06640625 C3.54377197 9.17474258 3.15004395 8.28307892 2.74438477 7.36439514 C2.38401123 6.54361984 2.0236377 5.72284454 1.65234375 4.87719727 C1.33257568 4.15105728 1.01280762 3.4249173 0.68334961 2.67677307 C0 1 0 1 0 0 Z " fill="#CA9835" transform="translate(222,77)"/>
<path d="M0 0 C1.43388421 0.730097 2.8635322 1.46856704 4.2890625 2.21484375 C5.39314453 2.78041992 5.39314453 2.78041992 6.51953125 3.35742188 C8.32145896 4.28178739 10.11829349 5.21606989 11.9140625 6.15234375 C8.56951496 9.71374475 4.90336819 12.58904823 0.9765625 15.46484375 C0.36876953 15.93212891 -0.23902344 16.39941406 -0.86523438 16.88085938 C-5.42198099 20.20870993 -5.42198099 20.20870993 -8.53613281 19.94433594 C-11.22883936 19.10795715 -13.01675795 18.08037472 -15.29296875 16.4296875 C-16.04384766 15.89150391 -16.79472656 15.35332031 -17.56835938 14.79882812 C-18.33728516 14.23486328 -19.10621094 13.67089844 -19.8984375 13.08984375 C-20.68669922 12.52201172 -21.47496094 11.95417969 -22.28710938 11.36914062 C-24.22566832 9.97102841 -26.15820974 8.56533293 -28.0859375 7.15234375 C-25.10443632 3.9535649 -21.68414839 2.24938505 -17.7734375 0.40234375 C-17.12181641 0.07363281 -16.47019531 -0.25507812 -15.79882812 -0.59375 C-9.60400072 -3.53303748 -5.95721189 -2.81573754 0 0 Z " fill="#C99835" transform="translate(258.0859375,52.84765625)"/>
<path d="M0 0 C7.26 0 14.52 0 22 0 C15.33541342 7.77535101 15.33541342 7.77535101 11.5625 11.4375 C8.87913684 14.08538067 6.30570868 16.74439152 3.875 19.625 C-1.98124094 26.47358726 -8.59273629 32.67305878 -15 39 C-15.33 38.34 -15.66 37.68 -16 37 C-14.94462437 34.17818681 -13.81969218 31.46030609 -12.59765625 28.7109375 C-12.24110458 27.89251373 -11.88455292 27.07408997 -11.51719666 26.23086548 C-10.37293988 23.6089758 -9.21786687 20.99201022 -8.0625 18.375 C-7.28639411 16.6018754 -6.51099412 14.82844165 -5.73632812 13.0546875 C-3.83370778 8.69884928 -1.91655226 4.34983242 0 0 Z " fill="#C99835" transform="translate(280,77)"/>
<path d="M0 0 C0.66 0 1.32 0 2 0 C2.88653885 4.99647339 3.75885187 9.99515185 4.6184082 14.99633789 C4.91241644 16.69524967 5.21021552 18.39351015 5.51196289 20.09106445 C5.94649694 22.53953813 6.36707819 24.9900758 6.78515625 27.44140625 C6.92156021 28.19273331 7.05796417 28.94406036 7.19850159 29.71815491 C8.23449583 35.9256574 7.63423622 41.36368019 5.80859375 47.40234375 C5.58623047 48.14677734 5.36386719 48.89121094 5.13476562 49.65820312 C4.90466797 50.41037109 4.67457031 51.16253906 4.4375 51.9375 C4.20353516 52.71673828 3.96957031 53.49597656 3.72851562 54.29882812 C3.15682579 56.20057187 2.57904309 58.10048226 2 60 C1.34 60 0.68 60 0 60 C-4.32755185 48.24705115 -7.13152177 38.85319581 -4.48242188 26.38476562 C-3.67400403 22.38849766 -3.06394453 18.3597412 -2.41552734 14.33496094 C-1.64022949 9.55150627 -0.82185998 4.77564053 0 0 Z " fill="#C99837" transform="translate(249,86)"/>
<path d="M0 0 C7.26 0 14.52 0 22 0 C23.96143977 4.42732294 25.91998898 8.85571097 27.87158203 13.28735352 C28.53531742 14.79230487 29.20065702 16.29654983 29.86767578 17.80004883 C30.83015189 19.97029577 31.78669152 22.14307869 32.7421875 24.31640625 C33.03809784 24.98023819 33.33400818 25.64407013 33.6388855 26.32801819 C35.46111344 30.49191744 36.84061826 34.60380359 38 39 C28.85717832 31.5581684 20.44167353 23.04749757 12.83203125 14.05078125 C9.88643008 10.75346651 6.7184832 7.67774033 3.55419922 4.59130859 C2.35237063 3.41136971 1.17383167 2.20779425 0 1 C0 0.67 0 0.34 0 0 Z " fill="#C89836" transform="translate(198,77)"/>
<path d="M0 0 C6.6 0.33 13.2 0.66 20 1 C18.35 2.65 16.7 4.3 15 6 C14.13955078 6.87785156 14.13955078 6.87785156 13.26171875 7.7734375 C9.72014664 11.37652575 6.05449365 14.758824 2.2265625 18.0546875 C-0.34914415 20.30504173 -2.8593409 22.62025908 -5.375 24.9375 C-10.40458876 29.53095659 -15.62147741 33.82318636 -21 38 C-21 34.50174365 -20.21666145 33.31818647 -18.4375 30.3515625 C-17.8911792 29.43391113 -17.3448584 28.51625977 -16.78198242 27.57080078 C-16.19392822 26.59868652 -15.60587402 25.62657227 -15 24.625 C-14.41001221 23.63870605 -13.82002441 22.65241211 -13.2121582 21.63623047 C-8.86689714 14.38759626 -4.46337647 7.17640922 0 0 Z " fill="#C99937" transform="translate(306,76)"/>
<path d="M0 0 C3.20675471 -0.2631068 6.41073666 -0.4216804 9.625 -0.5625 C10.52863281 -0.63791016 11.43226563 -0.71332031 12.36328125 -0.79101562 C18.91708855 -1.00628667 18.91708855 -1.00628667 21.69067383 1.57104492 C23.30682801 3.97114008 24.64248928 6.44451697 26 9 C27.36138694 11.17312571 28.7359566 13.33802869 30.12109375 15.49609375 C31.19974583 17.22045707 32.27186464 18.9487631 33.34350586 20.67749023 C34.08195008 21.86549389 34.82390135 23.05132377 35.5690918 24.23510742 C36.65669643 25.96322971 37.73375958 27.69750803 38.80859375 29.43359375 C39.76463501 30.96584595 39.76463501 30.96584595 40.73999023 32.52905273 C41.15579346 33.34446533 41.57159668 34.15987793 42 35 C41.505 35.99 41.505 35.99 41 37 C35.2971398 32.45214946 29.73989543 27.91610049 24.6640625 22.671875 C22.28182465 20.27845293 19.73411565 18.09717383 17.1796875 15.890625 C14.70256698 13.7420115 12.2545317 11.56340823 9.8125 9.375 C8.61560547 8.30378906 8.61560547 8.30378906 7.39453125 7.2109375 C4.86080769 4.87147986 2.42320212 2.45333074 0 0 Z " fill="#C99835" transform="translate(174,77)"/>
<path d="M0 0 C0.66 0.33 1.32 0.66 2 1 C-0.16255971 4.70241292 -2.33159808 8.40093181 -4.50634766 12.09619141 C-5.24310361 13.35005935 -5.97817394 14.6049195 -6.71142578 15.86083984 C-15.07243828 30.17607953 -24.9076925 44.98221164 -40 53 C-38.28041096 43.18401256 -34.57453506 35.79449945 -27.23828125 29.05859375 C-25.25062981 27.23050944 -23.54009443 25.38123966 -21.8125 23.3125 C-17.79928996 18.61780147 -13.38228777 14.33042112 -8.97387695 10.01098633 C-5.74197831 6.82553199 -2.75089358 3.62462653 0 0 Z " fill="#C89938" transform="translate(294,88)"/>
<path d="M0 0 C3.54547292 1.47662235 5.46017513 3.40723034 7.9375 6.3125 C11.68200853 10.58928577 15.5776664 14.63447515 19.625 18.625 C23.76943508 22.72053671 27.78488059 26.84989758 31.53515625 31.31640625 C33.01871922 33.09080872 33.01871922 33.09080872 35.0078125 34.8046875 C37.48086169 37.52989073 38.51864102 40.12654217 39.8125 43.5625 C40.25207031 44.69816406 40.69164062 45.83382812 41.14453125 47.00390625 C42 50 42 50 41 53 C40.29875 52.35933594 39.5975 51.71867187 38.875 51.05859375 C37.92625 50.19363281 36.9775 49.32867187 36 48.4375 C35.50105225 47.98221924 35.00210449 47.52693848 34.48803711 47.05786133 C30.96889865 43.85572171 27.39659463 40.72845639 23.75390625 37.66796875 C19.92423305 34.02594101 17.13473071 29.76665061 14.43359375 25.25390625 C13.78326172 24.16916016 13.13292969 23.08441406 12.46289062 21.96679688 C11.46032227 20.28166992 11.46032227 20.28166992 10.4375 18.5625 C9.76525391 17.44294922 9.09300781 16.32339844 8.40039062 15.16992188 C5.4199245 10.18274667 2.55056028 5.22368309 0 0 Z " fill="#C89937" transform="translate(204,88)"/>
<path d="M0 0 C9.57 0 19.14 0 29 0 C29.02258204 19.69744424 29.04099963 39.39487798 29.05181217 59.09233189 C29.05696628 68.2383985 29.06399213 77.3844565 29.07543945 86.53051758 C29.08541331 94.50313556 29.09185987 102.4757473 29.09408849 110.44837135 C29.095391 114.66895854 29.09844781 118.88952787 29.10573006 123.11010933 C29.11253289 127.08515513 29.11460828 131.06017576 29.11310768 135.03522682 C29.11338209 136.49165229 29.11536187 137.94807863 29.11920547 139.40449905 C29.1242093 141.39889665 29.12238217 143.39330784 29.12025452 145.38771057 C29.12117631 146.50215829 29.1220981 147.61660601 29.12304783 148.76482487 C28.99114798 152.23273736 28.54646638 155.57492448 28 159 C27.67 159 27.34 159 27 159 C27 107.52 27 56.04 27 3 C23.95236066 1.98412022 21.65281033 1.80195594 18.45703125 1.68359375 C17.38388672 1.64169922 16.31074219 1.59980469 15.20507812 1.55664062 C14.08552734 1.51732422 12.96597656 1.47800781 11.8125 1.4375 C10.68134766 1.39431641 9.55019531 1.35113281 8.38476562 1.30664062 C5.58996646 1.20050901 2.79507838 1.09845615 0 1 C0 0.67 0 0.34 0 0 Z " fill="#C39C51" transform="translate(322,148)"/>
<path d="M0 0 C2.48222825 1.13871197 4.89378543 2.30456915 7.3125 3.5625 C8.28026367 4.0565332 8.28026367 4.0565332 9.26757812 4.56054688 C10.84785228 5.36824255 12.42432105 6.18337613 14 7 C14 7.66 14 8.32 14 9 C10.31678132 10.85393604 6.63227389 12.70528192 2.9465332 14.55419922 C1.69194085 15.18401531 0.43770785 15.81454773 -0.81616211 16.44580078 C-2.61478356 17.35115192 -4.4147925 18.25374497 -6.21484375 19.15625 C-7.29886475 19.70087891 -8.38288574 20.24550781 -9.49975586 20.80664062 C-12 22 -12 22 -13 22 C-13.02717692 19.93757383 -13.0464758 17.87504297 -13.0625 15.8125 C-13.07410156 14.66394531 -13.08570313 13.51539062 -13.09765625 12.33203125 C-12.88223451 4.98184164 -12.88223451 4.98184164 -10.546875 2.3828125 C-9.95390625 1.96773437 -9.3609375 1.55265625 -8.75 1.125 C-8.16734375 0.69445313 -7.5846875 0.26390625 -6.984375 -0.1796875 C-4.19710107 -1.33190704 -2.87595679 -0.90363635 0 0 Z " fill="#CA9835" transform="translate(209,51)"/>
<path d="M0 0 C5.7430812 3.15306419 5.7430812 3.15306419 6.671875 6.21484375 C7.05177221 9.43944742 7.09529329 12.56596435 7.0625 15.8125 C7.05347656 16.97394531 7.04445313 18.13539062 7.03515625 19.33203125 C7.02355469 20.21246094 7.01195312 21.09289062 7 22 C3.9992992 20.58481442 0.99957233 19.16757567 -2 17.75 C-2.83917969 17.35425781 -3.67835938 16.95851563 -4.54296875 16.55078125 C-9.72943306 14.09826712 -14.87807837 11.58467342 -20 9 C-20 8.34 -20 7.68 -20 7 C-17.42362412 5.63092584 -14.84031896 4.27971545 -12.25 2.9375 C-11.52039063 2.54755859 -10.79078125 2.15761719 -10.0390625 1.75585938 C-9.33007812 1.39169922 -8.62109375 1.02753906 -7.890625 0.65234375 C-7.24125977 0.31195068 -6.59189453 -0.02844238 -5.92285156 -0.37915039 C-3.5163959 -1.15614592 -2.35532114 -0.85811063 0 0 Z " fill="#CA9936" transform="translate(297,51)"/>
<path d="M0 0 C0.66 0 1.32 0 2 0 C2.02730408 1.56240032 2.04653226 3.1249427 2.0625 4.6875 C2.07410156 5.55761719 2.08570313 6.42773438 2.09765625 7.32421875 C2 10 2 10 1 15 C-4.94 15 -10.88 15 -17 15 C-17 14.34 -17 13.68 -17 13 C-15.54711914 11.68725586 -15.54711914 11.68725586 -13.53515625 10.21484375 C-12.81779297 9.68439453 -12.10042969 9.15394531 -11.36132812 8.60742188 C-10.60271484 8.05634766 -9.84410156 7.50527344 -9.0625 6.9375 C-7.57385356 5.84294442 -6.08555398 4.74791688 -4.59765625 3.65234375 C-3.93258057 3.16757568 -3.26750488 2.68280762 -2.58227539 2.18334961 C-1.04410017 1.09168909 -1.04410017 1.09168909 0 0 Z " fill="#C6983C" transform="translate(192,59)"/>
<path d="M0 0 C3.47832575 3.47832575 4.40069239 8.41531818 6 13 C-1.59 13 -9.18 13 -17 13 C-13.17285892 9.17285892 -10.1249151 6.5645054 -5.6875 3.6875 C-4.08455078 2.64142578 -4.08455078 2.64142578 -2.44921875 1.57421875 C-1.64097656 1.05472656 -0.83273437 0.53523438 0 0 Z " fill="#C89635" transform="translate(272,61)"/>
<path d="M0 0 C4.28411697 2.03690503 7.93284398 4.707487 11.75 7.5 C12.44738281 7.99886719 13.14476562 8.49773437 13.86328125 9.01171875 C14.85134766 9.73294922 14.85134766 9.73294922 15.859375 10.46875 C16.46233398 10.90638672 17.06529297 11.34402344 17.68652344 11.79492188 C18.1199707 12.19259766 18.55341797 12.59027344 19 13 C19 13.66 19 14.32 19 15 C13.06 15 7.12 15 1 15 C0.24627901 11.23139506 -0.11244419 8.43331415 -0.0625 4.6875 C-0.05347656 3.80449219 -0.04445313 2.92148437 -0.03515625 2.01171875 C-0.02355469 1.34785156 -0.01195312 0.68398438 0 0 Z " fill="#C89837" transform="translate(306,59)"/>
<path d="M0 0 C6.40149051 3.41412827 12.30728431 7.50141636 18 12 C18 12.33 18 12.66 18 13 C10.41 13 2.82 13 -5 13 C-3.35 8.71 -1.7 4.42 0 0 Z " fill="#C79538" transform="translate(227,61)"/>
<path d="M0 0 C3.59827472 1.48921884 5.54613518 3.49782147 8.0625 6.4375 C12.45623915 11.46833133 17.1096426 16.11411301 21.91015625 20.75 C24 23 24 23 24 25 C23.34 25 22.68 25 22 25 C20.61767557 23.37373596 19.28062485 21.7074998 18 20 C17.67 20.33 17.34 20.66 17 21 C17.33 21.99 17.66 22.98 18 24 C17.0625 26.1875 17.0625 26.1875 16 28 C13.89245638 24.46033266 11.78957228 20.91791885 9.6875 17.375 C9.09259766 16.37597656 8.49769531 15.37695312 7.88476562 14.34765625 C5.0910677 9.63426646 2.34236277 4.95532341 0 0 Z " fill="#C29742" transform="translate(204,88)"/>
<path d="M0 0 C9.9 0 19.8 0 30 0 C19.67045455 6.88636364 19.67045455 6.88636364 14.0625 7.125 C9.24801395 5.35641329 4.61803792 3.22684747 0 1 C0 0.67 0 0.34 0 0 Z " fill="#C69635" transform="translate(258,50)"/>
<path d="M0 0 C9.9 0 19.8 0 30 0 C25.20997437 3.59251923 20.27254225 6.92885778 14.125 7.0625 C9.25138485 5.40547085 4.63301113 3.23406764 0 1 C0 0.67 0 0.34 0 0 Z " fill="#C99735" transform="translate(212,50)"/>
<path d="M0 0 C3.10917296 1.42684596 6.21136053 2.86828703 9.3125 4.3125 C10.19357422 4.71662109 11.07464844 5.12074219 11.98242188 5.53710938 C12.82998047 5.93349609 13.67753906 6.32988281 14.55078125 6.73828125 C15.33106689 7.09962158 16.11135254 7.46096191 16.9152832 7.83325195 C19 9 19 9 22 12 C16.39 12 10.78 12 5 12 C0 2.25 0 2.25 0 0 Z " fill="#C49540" transform="translate(276,62)"/>
<path d="M0 0 C0.33 0.66 0.66 1.32 1 2 C-0.44404465 5.45438131 -2.25619653 8.68252023 -4 12 C-9.61 12 -15.22 12 -21 12 C-18.41055231 9.41055231 -16.92925494 8.28452901 -13.76953125 6.73828125 C-12.96708984 6.34189453 -12.16464844 5.94550781 -11.33789062 5.53710938 C-10.50451172 5.13298828 -9.67113281 4.72886719 -8.8125 4.3125 C-7.96751953 3.89677734 -7.12253906 3.48105469 -6.25195312 3.05273438 C-4.1705742 2.02968372 -2.08659968 1.01234845 0 0 Z " fill="#C89735" transform="translate(223,62)"/>
<path d="M0 0 C4.42784827 4.1763135 7.21588397 8.93091333 10.3125 14.125 C10.87517578 15.04410156 11.43785156 15.96320313 12.01757812 16.91015625 C12.54416016 17.78800781 13.07074219 18.66585937 13.61328125 19.5703125 C14.33704956 20.77324951 14.33704956 20.77324951 15.07543945 22.00048828 C15.38054443 22.66032715 15.68564941 23.32016602 16 24 C15.67 24.66 15.34 25.32 15 26 C13.2446735 24.61087093 11.49596093 23.21338227 9.75 21.8125 C8.77546875 21.03519531 7.8009375 20.25789063 6.796875 19.45703125 C4.16424517 17.144288 2.09027918 14.80196947 0 12 C1.32 11.67 2.64 11.34 4 11 C3.65213292 9.02463255 3.65213292 9.02463255 3 7 C2.34 6.67 1.68 6.34 1 6 C0.375 2.9375 0.375 2.9375 0 0 Z " fill="#C5973B" transform="translate(200,88)"/>
<path d="M0 0 C0.33 0 0.66 0 1 0 C1.06943077 8.17960554 1.12277566 16.35908851 1.15543652 24.53891563 C1.17111006 28.33692183 1.19237859 32.13472681 1.22631836 35.93261719 C1.25885241 39.59602467 1.27684029 43.25923831 1.28463173 46.92277908 C1.29018603 48.3222827 1.30103199 49.72177539 1.31719017 51.12119675 C1.33888273 53.07727511 1.3402247 55.03354748 1.34057617 56.98974609 C1.34723801 58.1044931 1.35389984 59.21924011 1.36076355 60.36776733 C1.24171158 61.23640411 1.12265961 62.10504089 1 63 C-0.485 63.99 -0.485 63.99 -2 65 C-1.67 64.01 -1.34 63.02 -1 62 C-0.91173035 60.17467414 -0.88236797 58.34625311 -0.88647461 56.51879883 C-0.88655014 55.39786331 -0.88662567 54.2769278 -0.88670349 53.12202454 C-0.89186478 51.91257675 -0.89702606 50.70312897 -0.90234375 49.45703125 C-0.90446617 47.59893074 -0.90446617 47.59893074 -0.90663147 45.70329285 C-0.91128398 42.41368463 -0.9202661 39.1241254 -0.93133545 35.83453369 C-0.94157371 32.47628377 -0.94613426 29.11802667 -0.95117188 25.75976562 C-0.96220855 19.17315788 -0.97895233 12.58658295 -1 6 C-2.65 7.32 -4.3 8.64 -6 10 C-6.66 9.67 -7.32 9.34 -8 9 C-7.50628906 8.51789063 -7.01257813 8.03578125 -6.50390625 7.5390625 C-5.86324219 6.90742188 -5.22257812 6.27578125 -4.5625 5.625 C-3.92441406 4.99851563 -3.28632813 4.37203125 -2.62890625 3.7265625 C-0.92117824 2.08276939 -0.92117824 2.08276939 0 0 Z " fill="#C3973F" transform="translate(289,177)"/>
<path d="M0 0 C0.33 0 0.66 0 1 0 C2.35535734 7.63480292 1.53180419 13.33055656 -0.9375 20.625 C-1.22818359 21.53378906 -1.51886719 22.44257813 -1.81835938 23.37890625 C-2.52887856 25.59199879 -3.25605293 27.79796795 -4 30 C-4.66 30 -5.32 30 -6 30 C-6.33 27.03 -6.66 24.06 -7 21 C-6.34 21 -5.68 21 -5 21 C-5 19.35 -5 17.7 -5 16 C-4.01 16 -3.02 16 -2 16 C-1.67 15.34 -1.34 14.68 -1 14 C-1.99 13.67 -2.98 13.34 -4 13 C-2.68 12.67 -1.36 12.34 0 12 C0 8.04 0 4.08 0 0 Z " fill="#C79D43" transform="translate(255,116)"/>
<path d="M0 0 C3.63 1.65 7.26 3.3 11 5 C11 5.66 11 6.32 11 7 C5.555 9.475 5.555 9.475 0 12 C0 11.34 0 10.68 0 10 C0.66 10 1.32 10 2 10 C2 8.68 2 7.36 2 6 C1.34 5.67 0.68 5.34 0 5 C0 3.35 0 1.7 0 0 Z " fill="#C9973A" transform="translate(212,53)"/>
<path d="M0 0 C0.9075 0.185625 1.815 0.37125 2.75 0.5625 C5.81387973 0.97494535 7.1297269 0.74071564 10 0 C12.75 0.4375 12.75 0.4375 15 1 C13.02 3.31 11.04 5.62 9 8 C4.46213776 5.73106888 3.05321843 3.90133466 0 0 Z " fill="#C7993A" transform="translate(233,282)"/>
<path d="M0 0 C7.26 0 14.52 0 22 0 C22.99 2.97 23.98 5.94 25 9 C24.01 8.67 23.02 8.34 22 8 C21.34 6.02 20.68 4.04 20 2 C13.07 1.505 13.07 1.505 6 1 C6.66 3.31 7.32 5.62 8 8 C6.85073734 7.04578192 5.70569459 6.08647955 4.5625 5.125 C3.92441406 4.59132813 3.28632813 4.05765625 2.62890625 3.5078125 C1 2 1 2 0 0 Z " fill="#C39536" transform="translate(198,77)"/>
<path d="M0 0 C3 3.75 3 3.75 3 6 C15.21 6 27.42 6 40 6 C40.33 5.34 40.66 4.68 41 4 C41 4.99 41 5.98 41 7 C27.47 7 13.94 7 0 7 C0 4.69 0 2.38 0 0 Z " fill="#C59E4A" transform="translate(149,341)"/>
<path d="M0 0 C0.33 0.66 0.66 1.32 1 2 C2.98 1.67 4.96 1.34 7 1 C8.15941038 4.47823115 7.70820884 6.45895578 7 10 C6.34 10 5.68 10 5 10 C5 9.01 5 8.02 5 7 C3.68 7 2.36 7 1 7 C0.67 4.69 0.34 2.38 0 0 Z M0 7 C2 10 2 10 2 12 C1.34 12 0.68 12 0 12 C0 10.35 0 8.7 0 7 Z " fill="#CD9C2D" transform="translate(197,55)"/>
<path d="M0 0 C3 1 3 1 4 3 C6.02463255 3.65213292 6.02463255 3.65213292 8 4 C8 4.66 8 5.32 8 6 C7.67 6.33 7.34 6.66 7 7 C7.66 7 8.32 7 9 7 C9 8.65 9 10.3 9 12 C4.48652248 9.67878299 1.89912232 7.09287857 -1 3 C-0.67 2.01 -0.34 1.02 0 0 Z " fill="#C8983D" transform="translate(189,86)"/>
<path d="M0 0 C3.91420857 1.13077136 6.20945732 2.08812937 9 5 C11.59915538 6.19027984 11.59915538 6.19027984 14 7 C14 7.33 14 7.66 14 8 C10.7 8 7.4 8 4 8 C3.67 7.01 3.34 6.02 3 5 C2.34 5 1.68 5 1 5 C0.67 3.35 0.34 1.7 0 0 Z " fill="#CB9730" transform="translate(278,65)"/>
<path d="M0 0 C9.9 0 19.8 0 30 0 C26 3 26 3 24 3 C24 2.34 24 1.68 24 1 C18.39 1 12.78 1 7 1 C7 1.66 7 2.32 7 3 C4.69 2.34 2.38 1.68 0 1 C0 0.67 0 0.34 0 0 Z " fill="#BE933C" transform="translate(212,50)"/>
<path d="M0 0 C2.5 1.3125 2.5 1.3125 5 3 C5 3.99 5 4.98 5 6 C5.99 5.67 6.98 5.34 8 5 C8 6.32 8 7.64 8 9 C5.03 8.67 2.06 8.34 -1 8 C-0.34 6.68 0.32 5.36 1 4 C0.34 3.67 -0.32 3.34 -1 3 C-0.67 2.01 -0.34 1.02 0 0 Z " fill="#CC9C2E" transform="translate(184,65)"/>
<path d="M0 0 C1 3.875 1 3.875 1 5 C1.99 5.33 2.98 5.66 4 6 C1.36 8.64 -1.28 11.28 -4 14 C-4.33 13.34 -4.66 12.68 -5 12 C-4.26821134 9.92803369 -3.44100997 7.8891448 -2.5625 5.875 C-2.08941406 4.77929688 -1.61632812 3.68359375 -1.12890625 2.5546875 C-0.75636719 1.71164063 -0.38382812 0.86859375 0 0 Z " fill="#C09240" transform="translate(269,102)"/>
<path d="M0 0 C1.44096586 0.42594588 2.87768712 0.86626633 4.3125 1.3125 C5.11300781 1.55613281 5.91351563 1.79976562 6.73828125 2.05078125 C9.09964573 3.04182023 10.33879993 4.08074943 12 6 C10.02 6.99 10.02 6.99 8 8 C8 7.34 8 6.68 8 6 C7.236875 5.7525 6.47375 5.505 5.6875 5.25 C2.7635955 3.89004442 1.69995644 2.68414174 0 0 Z " fill="#C19642" transform="translate(258,54)"/>
<path d="M0 0 C1.65 1.65 3.3 3.3 5 5 C4.195625 5.45375 3.39125 5.9075 2.5625 6.375 C-0.08856572 7.74725665 -0.08856572 7.74725665 -1 10 C-1.99 9.67 -2.98 9.34 -4 9 C-3.525625 8.443125 -3.05125 7.88625 -2.5625 7.3125 C-0.87604004 4.81653926 -0.41046893 2.9553763 0 0 Z " fill="#C79740" transform="translate(165,148)"/>
<path d="M0 0 C2.31 1.98 4.62 3.96 7 6 C6.67 6.99 6.34 7.98 6 9 C4.68 8.67 3.36 8.34 2 8 C1.34 5.36 0.68 2.72 0 0 Z " fill="#CB9733" transform="translate(212,98)"/>
<path d="M0 0 C0.99 0.66 1.98 1.32 3 2 C0.36 4.64 -2.28 7.28 -5 10 C-5.33 8.68 -5.66 7.36 -6 6 C-5.01 5.67 -4.02 5.34 -3 5 C-1.8499169 3.03327085 -1.8499169 3.03327085 -1 1 C-0.67 0.67 -0.34 0.34 0 0 Z " fill="#C39846" transform="translate(269,257)"/>
<path d="M0 0 C0.598125 0.309375 1.19625 0.61875 1.8125 0.9375 C4.08956772 2.10209704 4.08956772 2.10209704 7 3 C7 3.66 7 4.32 7 5 C7.99 5.33 8.98 5.66 10 6 C9.67 7.32 9.34 8.64 9 10 C7.49702124 8.52386015 5.99768715 7.04400843 4.5 5.5625 C3.6646875 4.73878906 2.829375 3.91507812 1.96875 3.06640625 C0 1 0 1 0 0 Z " fill="#C09946" transform="translate(205,253)"/>
<path d="M0 0 C3.93548431 3.06093224 6.68116787 5.49115974 9 10 C6.69 9.34 4.38 8.68 2 8 C1.34 5.36 0.68 2.72 0 0 Z " fill="#C09447" transform="translate(202,189)"/>
<path d="M0 0 C0 3 0 3 -2.4375 5.6875 C-6.34474955 8.8170476 -10.21006352 8.47899365 -15 8 C-15 7.67 -15 7.34 -15 7 C-13.80375 6.7525 -12.6075 6.505 -11.375 6.25 C-6.89701514 5.14442292 -3.30683936 3.30683936 0 0 Z " fill="#BC973F" transform="translate(304,303)"/>
<path d="M0 0 C1.65 0 3.3 0 5 0 C5 1.98 5 3.96 5 6 C2.525 5.01 2.525 5.01 0 4 C0 2.68 0 1.36 0 0 Z " fill="#CE9734" transform="translate(224,100)"/>
<path d="M0 0 C1.98 0.66 3.96 1.32 6 2 C5.67 2.66 5.34 3.32 5 4 C4.34 4 3.68 4 3 4 C3 4.66 3 5.32 3 6 C2.01 6.33 1.02 6.66 0 7 C0 4.69 0 2.38 0 0 Z M6 1 C10 2 10 2 10 2 Z " fill="#CC9C30" transform="translate(294,96)"/>
<path d="M0 0 C0.75 1.75 0.75 1.75 1 4 C-0.75 6.25 -0.75 6.25 -3 8 C-3.99 8 -4.98 8 -6 8 C-4.55746343 4.63408134 -2.66735273 2.48952921 0 0 Z " fill="#C19941" transform="translate(251,220)"/>
<path d="M0 0 C1.32 0.66 2.64 1.32 4 2 C0.535 4.97 0.535 4.97 -3 8 C-3 4.42424104 -1.91159393 2.94704065 0 0 Z " fill="#C1984B" transform="translate(288,106)"/>
<path d="M0 0 C-2.97 2.475 -2.97 2.475 -6 5 C-6.66 3.68 -7.32 2.36 -8 1 C-3.375 -1.125 -3.375 -1.125 0 0 Z " fill="#C29641" transform="translate(302,78)"/>
<path d="M0 0 C2.97 0.495 2.97 0.495 6 1 C6.66 3.31 7.32 5.62 8 8 C6.85073734 7.04578192 5.70569459 6.08647955 4.5625 5.125 C3.92441406 4.59132813 3.28632813 4.05765625 2.62890625 3.5078125 C1 2 1 2 0 0 Z " fill="#BF9443" transform="translate(198,77)"/>
<path d="M0 0 C2.86724686 0.57344937 3.8614515 0.8614515 6 3 C3.69 3.66 1.38 4.32 -1 5 C-0.67 3.35 -0.34 1.7 0 0 Z " fill="#C8983E" transform="translate(317,343)"/>
<path d="M0 0 C2.375 0.25 2.375 0.25 5 1 C6.125 2.9375 6.125 2.9375 7 5 C7.99 5.66 8.98 6.32 10 7 C6 7 6 7 4.296875 5.46875 C3.78640625 4.8190625 3.2759375 4.169375 2.75 3.5 C2.22921875 2.8503125 1.7084375 2.200625 1.171875 1.53125 C0.78515625 1.0259375 0.3984375 0.520625 0 0 Z " fill="#BD984C" transform="translate(233,282)"/>
<path d="M0 0 C1.65 0.33 3.3 0.66 5 1 C5.33 1.99 5.66 2.98 6 4 C2.7 4 -0.6 4 -4 4 C-2.68 3.34 -1.36 2.68 0 2 C0 1.34 0 0.68 0 0 Z " fill="#C99A2B" transform="translate(230,66)"/>
<path d="M0 0 C0.33 0.99 0.66 1.98 1 3 C-0.25 4.5625 -0.25 4.5625 -2 6 C-4.1875 5.6875 -4.1875 5.6875 -6 5 C-6 4.34 -6 3.68 -6 3 C-4.02 2.01 -2.04 1.02 0 0 Z " fill="#C19642" transform="translate(283,55)"/>
<path d="M0 0 C1.11375 0.3403125 1.11375 0.3403125 2.25 0.6875 C2.25 1.0175 2.25 1.3475 2.25 1.6875 C0.6 1.6875 -1.05 1.6875 -2.75 1.6875 C-3.08 2.6775 -3.41 3.6675 -3.75 4.6875 C-6.3125 5.875 -6.3125 5.875 -8.75 6.6875 C-6.97710463 2.40300285 -4.94524284 -0.56195941 0 0 Z " fill="#BF9741" transform="translate(206.75,50.3125)"/>
<path d="M0 0 C0.66 0.33 1.32 0.66 2 1 C1.01 2.485 1.01 2.485 0 4 C1.98 4 3.96 4 6 4 C6 4.33 6 4.66 6 5 C2.37 5 -1.26 5 -5 5 C-3.35 3.35 -1.7 1.7 0 0 Z " fill="#BD933E" transform="translate(260,69)"/>
<path d="M0 0 C1.9375 0.875 1.9375 0.875 4.9375 3.875 C1.3075 3.545 -2.3225 3.215 -6.0625 2.875 C-2.0625 -0.125 -2.0625 -0.125 0 0 Z " fill="#C09748" transform="translate(295.0625,50.125)"/>
<path d="M0 0 C1.32 0 2.64 0 4 0 C3.67 2.31 3.34 4.62 3 7 C0.7522025 4.94766315 -0.0022242 3.99332739 -1 1 C-0.67 0.67 -0.34 0.34 0 0 Z " fill="#C79A40" transform="translate(222,115)"/>
<path d="M0 0 C0.66 0 1.32 0 2 0 C2 0.66 2 1.32 2 2 C4.97 2 7.94 2 11 2 C11 2.33 11 2.66 11 3 C6.38 3 1.76 3 -3 3 C-2.01 2.01 -1.02 1.02 0 0 Z " fill="#C29842" transform="translate(205,71)"/>
<path d="M0 0 C3.3 0.33 6.6 0.66 10 1 C10 1.33 10 1.66 10 2 C5.545 2.495 5.545 2.495 1 3 C0.67 2.01 0.34 1.02 0 0 Z " fill="#C2993F" transform="translate(302,348)"/>
<path d="M0 0 C2 2 2 2 2 6 C2.66 6 3.32 6 4 6 C3.67 7.65 3.34 9.3 3 11 C2.34 10.67 1.68 10.34 1 10 C0.5859375 7.71484375 0.5859375 7.71484375 0.375 4.9375 C0.30023438 4.01839844 0.22546875 3.09929687 0.1484375 2.15234375 C0.09945313 1.44207031 0.05046875 0.73179688 0 0 Z " fill="#C19647" transform="translate(257,108)"/>
<path d="M0 0 C0.99 0 1.98 0 3 0 C3.33 2.97 3.66 5.94 4 9 C1.49701566 6.06171403 0.53069061 3.82097239 0 0 Z " fill="#C4963D" transform="translate(231,96)"/>
<path d="M0 0 C0.66 0 1.32 0 2 0 C2.33 1.65 2.66 3.3 3 5 C2.01 5.495 2.01 5.495 1 6 C0.01 5.01 -0.98 4.02 -2 3 C-1.34 2.01 -0.68 1.02 0 0 Z " fill="#D0A42C" transform="translate(283,90)"/>
<path d="M0 0 C0 3.10551666 -0.5393715 4.35261084 -2 7 C-3.32 6.67 -4.64 6.34 -6 6 C-4.02 4.02 -2.04 2.04 0 0 Z " fill="#BD984C" transform="translate(278,190)"/>
<path d="M0 0 C1.32 1.65 2.64 3.3 4 5 C3.67 5.66 3.34 6.32 3 7 C1.02 5.35 -0.96 3.7 -3 2 C-2.01 1.34 -1.02 0.68 0 0 Z " fill="#BF9750" transform="translate(212,107)"/>
<path d="M0 0 C2.0625 0.4375 2.0625 0.4375 4 1 C1.03 3.475 1.03 3.475 -2 6 C-1.125 1.125 -1.125 1.125 0 0 Z " fill="#C29340" transform="translate(275,101)"/>
<path d="M0 0 C3.96 0 7.92 0 12 0 C10.68 0.99 9.36 1.98 8 3 C4.75 2.1875 4.75 2.1875 2 1 C1.67 1.66 1.34 2.32 1 3 C0.67 2.01 0.34 1.02 0 0 Z " fill="#C5932C" transform="translate(229,77)"/>
<path d="M0 0 C3.63 0 7.26 0 11 0 C7 2 7 2 4 3 C2.68 2.01 1.36 1.02 0 0 Z " fill="#BD9239" transform="translate(258,50)"/>
<path d="M0 0 C1.65 0 3.3 0 5 0 C4.01 1.98 3.02 3.96 2 6 C0 3 0 3 0 0 Z " fill="#C39943" transform="translate(274,116)"/>
<path d="M0 0 C1.98 0.66 3.96 1.32 6 2 C6 2.66 6 3.32 6 4 C3.69 4 1.38 4 -1 4 C-0.67 2.68 -0.34 1.36 0 0 Z " fill="#D09E2E" transform="translate(249,67)"/>
<path d="M0 0 C1.98 0.99 1.98 0.99 4 2 C3.34 2.66 2.68 3.32 2 4 C1.60235737 5.98821313 1.26224651 7.98944339 1 10 C0.67 10 0.34 10 0 10 C0 6.7 0 3.4 0 0 Z " fill="#C19A42" transform="translate(306,59)"/>
<path d="M0 0 C1.32 0 2.64 0 4 0 C4 0.66 4 1.32 4 2 C-1.75 5 -1.75 5 -4 5 C-4 4.34 -4 3.68 -4 3 C-3.01 2.67 -2.02 2.34 -1 2 C-0.67 1.34 -0.34 0.68 0 0 Z " fill="#BC9842" transform="translate(219,58)"/>
<path d="" fill="#FFFFFF" transform="translate(0,0)"/>
<path d="" fill="#FFFFFF" transform="translate(0,0)"/>
<path d="" fill="#FFFFFF" transform="translate(0,0)"/>
<path d="" fill="#FFFFFF" transform="translate(0,0)"/>
<path d="" fill="#FFFFFF" transform="translate(0,0)"/>
<path d="" fill="#FFFFFF" transform="translate(0,0)"/>
<path d="" fill="#FFFFFF" transform="translate(0,0)"/>
<path d="" fill="#FFFFFF" transform="translate(0,0)"/>
<path d="" fill="#FFFFFF" transform="translate(0,0)"/>
<path d="" fill="#FFFFFF" transform="translate(0,0)"/>
<path d="" fill="#FFFFFF" transform="translate(0,0)"/>
<path d="" fill="#FFFFFF" transform="translate(0,0)"/>
<path d="" fill="#FFFFFF" transform="translate(0,0)"/>
<path d="" fill="#FFFFFF" transform="translate(0,0)"/>
<path d="" fill="#FFFFFF" transform="translate(0,0)"/>
<path d="" fill="#FFFFFF" transform="translate(0,0)"/>
<path d="" fill="#FFFFFF" transform="translate(0,0)"/>
<path d="" fill="#FFFFFF" transform="translate(0,0)"/>
<path d="" fill="#FFFFFF" transform="translate(0,0)"/>
<path d="" fill="#FFFFFF" transform="translate(0,0)"/>
<path d="" fill="#FFFFFF" transform="translate(0,0)"/>
<path d="" fill="#FFFFFF" transform="translate(0,0)"/>
<path d="" fill="#FFFFFF" transform="translate(0,0)"/>
<path d="" fill="#FFFFFF" transform="translate(0,0)"/>
<path d="" fill="#FFFFFF" transform="translate(0,0)"/>
<path d="" fill="#FFFFFF" transform="translate(0,0)"/>
<path d="" fill="#FFFFFF" transform="translate(0,0)"/>
<path d="" fill="#FFFFFF" transform="translate(0,0)"/>
<path d="" fill="#FFFFFF" transform="translate(0,0)"/>
<path d="" fill="#FFFFFF" transform="translate(0,0)"/>
<path d="" fill="#FFFFFF" transform="translate(0,0)"/>
<path d="" fill="#FFFFFF" transform="translate(0,0)"/>
<path d="" fill="#FFFFFF" transform="translate(0,0)"/>
<path d="" fill="#FFFFFF" transform="translate(0,0)"/>
<path d="" fill="#FFFFFF" transform="translate(0,0)"/>
<path d="" fill="#FFFFFF" transform="translate(0,0)"/>
<path d="" fill="#FFFFFF" transform="translate(0,0)"/>
<path d="" fill="#FFFFFF" transform="translate(0,0)"/>
<path d="" fill="#FFFFFF" transform="translate(0,0)"/>
<path d="" fill="#FFFFFF" transform="translate(0,0)"/>
<path d="" fill="#FFFFFF" transform="translate(0,0)"/>
<path d="" fill="#FFFFFF" transform="translate(0,0)"/>
<path d="" fill="#FFFFFF" transform="translate(0,0)"/>
<path d="" fill="#FFFFFF" transform="translate(0,0)"/>
<path d="" fill="#FFFFFF" transform="translate(0,0)"/>
<path d="" fill="#FFFFFF" transform="translate(0,0)"/>
<path d="" fill="#FFFFFF" transform="translate(0,0)"/>
<path d="" fill="#FFFFFF" transform="translate(0,0)"/>
<path d="" fill="#FFFFFF" transform="translate(0,0)"/>
<path d="" fill="#FFFFFF" transform="translate(0,0)"/>
<path d="" fill="#FFFFFF" transform="translate(0,0)"/>
<path d="" fill="#FFFFFF" transform="translate(0,0)"/>
<path d="" fill="#FFFFFF" transform="translate(0,0)"/>
<path d="" fill="#FFFFFF" transform="translate(0,0)"/>
<path d="" fill="#FFFFFF" transform="translate(0,0)"/>
<path d="" fill="#FFFFFF" transform="translate(0,0)"/>
<path d="" fill="#FFFFFF" transform="translate(0,0)"/>
<path d="" fill="#FFFFFF" transform="translate(0,0)"/>
<path d="" fill="#FFFFFF" transform="translate(0,0)"/>
<path d="" fill="#FFFFFF" transform="translate(0,0)"/>
<path d="" fill="#FFFFFF" transform="translate(0,0)"/>
<path d="" fill="#FFFFFF" transform="translate(0,0)"/>
<path d="" fill="#FFFFFF" transform="translate(0,0)"/>
<path d="" fill="#FFFFFF" transform="translate(0,0)"/>
<path d="" fill="#FFFFFF" transform="translate(0,0)"/>
<path d="" fill="#FFFFFF" transform="translate(0,0)"/>
<path d="" fill="#FFFFFF" transform="translate(0,0)"/>
<path d="" fill="#FFFFFF" transform="translate(0,0)"/>
<path d="" fill="#FFFFFF" transform="translate(0,0)"/>
<path d="" fill="#FFFFFF" transform="translate(0,0)"/>
<path d="" fill="#FFFFFF" transform="translate(0,0)"/>
<path d="" fill="#FFFFFF" transform="translate(0,0)"/>
<path d="" fill="#FFFFFF" transform="translate(0,0)"/>
<path d="" fill="#FFFFFF" transform="translate(0,0)"/>
<path d="" fill="#FFFFFF" transform="translate(0,0)"/>
<path d="" fill="#FFFFFF" transform="translate(0,0)"/>
<path d="" fill="#FFFFFF" transform="translate(0,0)"/>
<path d="" fill="#FFFFFF" transform="translate(0,0)"/>
<path d="" fill="#FFFFFF" transform="translate(0,0)"/>
<path d="" fill="#FFFFFF" transform="translate(0,0)"/>
<path d="" fill="#FFFFFF" transform="translate(0,0)"/>
<path d="" fill="#FFFFFF" transform="translate(0,0)"/>
<path d="" fill="#FFFFFF" transform="translate(0,0)"/>
<path d="" fill="#FFFFFF" transform="translate(0,0)"/>
<path d="" fill="#FFFFFF" transform="translate(0,0)"/>
<path d="" fill="#FFFFFF" transform="translate(0,0)"/>
<path d="" fill="#FFFFFF" transform="translate(0,0)"/>
<path d="" fill="#FFFFFF" transform="translate(0,0)"/>
<path d="" fill="#FFFFFF" transform="translate(0,0)"/>
<path d="" fill="#FFFFFF" transform="translate(0,0)"/>
<path d="" fill="#FFFFFF" transform="translate(0,0)"/>
<path d="" fill="#FFFFFF" transform="translate(0,0)"/>
<path d="" fill="#FFFFFF" transform="translate(0,0)"/>
<path d="" fill="#FFFFFF" transform="translate(0,0)"/>
<path d="" fill="#FFFFFF" transform="translate(0,0)"/>
<path d="" fill="#FFFFFF" transform="translate(0,0)"/>
<path d="" fill="#FFFFFF" transform="translate(0,0)"/>
<path d="" fill="#FFFFFF" transform="translate(0,0)"/>
<path d="" fill="#FFFFFF" transform="translate(0,0)"/>
<path d="" fill="#FFFFFF" transform="translate(0,0)"/>
</svg>
